<?xml version="1.0" encoding="utf-8"?>
<!-- Generator: Adobe Illustrator 24.3.0, SVG Export Plug-In . SVG Version: 6.00 Build 0)  -->
<svg version="1.1" id="Слой_1" xmlns="http://www.w3.org/2000/svg" xmlns:xlink="http://www.w3.org/1999/xlink" x="0px" y="0px"
	 viewBox="0 0 138.4 37.3" style="enable-background:new 0 0 138.4 37.3;" xml:space="preserve">
<style type="text/css">
	.st0{fill:#FFFFFF;stroke:#34495E;stroke-width:5;stroke-miterlimit:10;}
	.st1{fill:#FFFFFF;stroke:#2ECC71;stroke-miterlimit:10;}
</style>
<g>
	<path class="st0" d="M11.4,8.3L4.3,9.6L3.9,7.1l17.2-3.2l0.5,2.6l-7.1,1.3l3.8,20.7l-3,0.6L11.4,8.3z"/>
	<path class="st0" d="M39.4,20.7c0.2,1.7,0.4,3.3,0.7,4.6l-2.7,0.3l-0.5-2.7l-0.1,0c-0.6,1.5-2.2,3.5-5.2,3.8
		c-2.6,0.3-6-0.7-6.7-6.6l-1.2-9.8l3.1-0.4l1.2,9.3c0.4,3.2,1.6,5.2,4.4,4.9c2.1-0.3,3.3-1.9,3.7-3.3c0.1-0.5,0.2-1,0.1-1.6
		L34.8,8.9l3.1-0.4L39.4,20.7z"/>
	<path class="st0" d="M44.1,13.5c-0.1-2.2-0.3-3.9-0.5-5.5l2.8-0.2l0.3,2.9l0.1,0c1.1-2.1,3.1-3.5,5.8-3.7c4.1-0.3,7.4,3,7.7,8.2
		c0.4,6.1-3.2,9.3-7.1,9.6c-2.2,0.1-4.3-0.7-5.4-2.3l-0.1,0l0.6,9.2l-3,0.2L44.1,13.5z M47.4,17.8c0,0.5,0.1,0.9,0.2,1.3
		c0.7,2.1,2.6,3.5,4.8,3.3c3.3-0.2,5-3,4.7-6.9c-0.2-3.4-2.2-6.2-5.4-6c-2.1,0.1-4,1.8-4.4,4.1c-0.1,0.4-0.2,0.9-0.1,1.3L47.4,17.8z
		"/>
	<path class="st0" d="M78.6,19.2c0,1.8,0,3.3,0.1,4.6l-2.7,0l-0.2-2.8h-0.1c-0.8,1.4-2.6,3.2-5.6,3.1c-2.7,0-5.9-1.5-5.8-7.4l0-9.9
		l3.1,0l0,9.4c0,3.2,1,5.4,3.8,5.4c2.1,0,3.5-1.4,4.1-2.8c0.2-0.5,0.3-1,0.3-1.6l0-10.4l3.1,0L78.6,19.2z"/>
	<path class="st0" d="M84.1,11.7c0.1-1.7,0.2-3.2,0.2-4.6L87,7.3l0,2.8l0.1,0c0.9-1.6,3-3,5.8-2.8c2.3,0.2,5.9,1.8,5.5,7.6L97.7,25
		l-3.1-0.2l0.6-9.8c0.2-2.7-0.7-5.1-3.6-5.3c-2-0.1-3.7,1.2-4.3,2.9C87.2,13,87.1,13.5,87,14l-0.7,10.2L83.3,24L84.1,11.7z"/>
	<path class="st0" d="M119,10.5c-0.2,1.2-0.5,2.6-0.7,4.6l-1.3,9.8c-0.5,3.9-1.6,6.1-3.4,7.4c-1.8,1.3-4.3,1.5-6.4,1.2
		c-2-0.3-4.2-1-5.4-2.1l1.1-2.2c1,0.8,2.7,1.7,4.8,2c3.1,0.4,5.6-0.9,6.2-5.2l0.2-1.9l-0.1,0c-1.1,1.4-3.1,2.5-5.7,2.1
		c-4.2-0.5-6.7-4.5-6.1-9.1c0.7-5.7,4.9-8.5,8.7-8c2.9,0.4,4.3,2.1,4.9,3.6l0.1,0l0.5-2.5L119,10.5z M115,16.7c0.1-0.5,0.1-1,0-1.4
		c-0.3-1.8-1.6-3.5-3.9-3.8c-2.9-0.4-5.3,1.8-5.8,5.7c-0.4,3.3,0.9,6.3,4.2,6.7c1.9,0.2,3.7-0.7,4.6-2.6c0.2-0.5,0.4-1.1,0.5-1.6
		L115,16.7z"/>
	<path class="st0" d="M130.6,29.8l0.2-2.1l-0.1,0c-1.2,1.1-3.2,2-5.6,1.5c-3.4-0.6-4.6-3.4-4.2-5.8c0.8-4,4.8-5.6,11.2-4.3l0.1-0.3
		c0.3-1.4,0.4-3.9-3.1-4.6c-1.6-0.3-3.3-0.1-4.6,0.4l-0.3-2.1c1.5-0.6,3.7-0.8,5.8-0.4c5.1,1,5.7,4.7,5,8l-1.2,6.2
		c-0.3,1.4-0.5,2.9-0.5,4L130.6,29.8z M131.8,21.2c-3.3-0.7-7.2-0.8-7.8,2.4c-0.4,2,0.8,3.1,2.3,3.4c2.2,0.4,3.8-0.7,4.6-2
		c0.2-0.3,0.3-0.6,0.4-0.9L131.8,21.2z"/>
</g>
<g>
	<path class="st1" d="M11.4,8.3L4.3,9.6L3.9,7.1l17.2-3.2l0.5,2.6l-7.1,1.3l3.8,20.7l-3,0.6L11.4,8.3z"/>
	<path class="st1" d="M39.4,20.7c0.2,1.7,0.4,3.3,0.7,4.6l-2.7,0.3l-0.5-2.7l-0.1,0c-0.6,1.5-2.2,3.5-5.2,3.8
		c-2.6,0.3-6-0.7-6.7-6.6l-1.2-9.8l3.1-0.4l1.2,9.3c0.4,3.2,1.6,5.2,4.4,4.9c2.1-0.3,3.3-1.9,3.7-3.3c0.1-0.5,0.2-1,0.1-1.6
		L34.8,8.9l3.1-0.4L39.4,20.7z"/>
	<path class="st1" d="M44.1,13.5c-0.1-2.2-0.3-3.9-0.5-5.5l2.8-0.2l0.3,2.9l0.1,0c1.1-2.1,3.1-3.5,5.8-3.7c4.1-0.3,7.4,3,7.7,8.2
		c0.4,6.1-3.2,9.3-7.1,9.6c-2.2,0.1-4.3-0.7-5.4-2.3l-0.1,0l0.6,9.2l-3,0.2L44.1,13.5z M47.4,17.8c0,0.5,0.1,0.9,0.2,1.3
		c0.7,2.1,2.6,3.5,4.8,3.3c3.3-0.2,5-3,4.7-6.9c-0.2-3.4-2.2-6.2-5.4-6c-2.1,0.1-4,1.8-4.4,4.1c-0.1,0.4-0.2,0.9-0.1,1.3L47.4,17.8z
		"/>
	<path class="st1" d="M78.6,19.2c0,1.8,0,3.3,0.1,4.6l-2.7,0l-0.2-2.8h-0.1c-0.8,1.4-2.6,3.2-5.6,3.1c-2.7,0-5.9-1.5-5.8-7.4l0-9.9
		l3.1,0l0,9.4c0,3.2,1,5.4,3.8,5.4c2.1,0,3.5-1.4,4.1-2.8c0.2-0.5,0.3-1,0.3-1.6l0-10.4l3.1,0L78.6,19.2z"/>
	<path class="st1" d="M84.1,11.7c0.1-1.7,0.2-3.2,0.2-4.6L87,7.3l0,2.8l0.1,0c0.9-1.6,3-3,5.8-2.8c2.3,0.2,5.9,1.8,5.5,7.6L97.7,25
		l-3.1-0.2l0.6-9.8c0.2-2.7-0.7-5.1-3.6-5.3c-2-0.1-3.7,1.2-4.3,2.9C87.2,13,87.1,13.5,87,14l-0.7,10.2L83.3,24L84.1,11.7z"/>
	<path class="st1" d="M119,10.5c-0.2,1.2-0.5,2.6-0.7,4.6l-1.3,9.8c-0.5,3.9-1.6,6.1-3.4,7.4c-1.8,1.3-4.3,1.5-6.4,1.2
		c-2-0.3-4.2-1-5.4-2.1l1.1-2.2c1,0.8,2.7,1.7,4.8,2c3.1,0.4,5.6-0.9,6.2-5.2l0.2-1.9l-0.1,0c-1.1,1.4-3.1,2.5-5.7,2.1
		c-4.2-0.5-6.7-4.5-6.1-9.1c0.7-5.7,4.9-8.5,8.7-8c2.9,0.4,4.3,2.1,4.9,3.6l0.1,0l0.5-2.5L119,10.5z M115,16.7c0.1-0.5,0.1-1,0-1.4
		c-0.3-1.8-1.6-3.5-3.9-3.8c-2.9-0.4-5.3,1.8-5.8,5.7c-0.4,3.3,0.9,6.3,4.2,6.7c1.9,0.2,3.7-0.7,4.6-2.6c0.2-0.5,0.4-1.1,0.5-1.6
		L115,16.7z"/>
	<path class="st1" d="M130.6,29.8l0.2-2.1l-0.1,0c-1.2,1.1-3.2,2-5.6,1.5c-3.4-0.6-4.6-3.4-4.2-5.8c0.8-4,4.8-5.6,11.2-4.3l0.1-0.3
		c0.3-1.4,0.4-3.9-3.1-4.6c-1.6-0.3-3.3-0.1-4.6,0.4l-0.3-2.1c1.5-0.6,3.7-0.8,5.8-0.4c5.1,1,5.7,4.7,5,8l-1.2,6.2
		c-0.3,1.4-0.5,2.9-0.5,4L130.6,29.8z M131.8,21.2c-3.3-0.7-7.2-0.8-7.8,2.4c-0.4,2,0.8,3.1,2.3,3.4c2.2,0.4,3.8-0.7,4.6-2
		c0.2-0.3,0.3-0.6,0.4-0.9L131.8,21.2z"/>
</g>
</svg>
